<svg xmlns="http://www.w3.org/2000/svg" width="265.625" height="267.544" fill="none" style="-webkit-print-color-adjust:exact" viewBox="-12 -12 265.625 267.544"><path d="M3.448 149.772A121.117 121.117 0 0 1 0 121C0 54.218 54.218 0 121 0a121.16 121.16 0 0 1 27.312 3.101" class="fills" style="opacity:1"/><g class="strokes"><path d="M3.448 149.772A121.117 121.117 0 0 1 0 121C0 54.218 54.218 0 121 0a121.16 121.16 0 0 1 27.312 3.101" class="stroke-shape" style="opacity:1;fill:none;stroke-width:24;stroke:#010101;stroke-opacity:1;stroke-linecap:round"/></g><path d="M238.177 93.772a121.117 121.117 0 0 1 3.448 28.772c0 66.782-54.219 121-121 121-9.391 0-18.534-1.072-27.313-3.101" class="fills" style="opacity:1"/><g class="strokes"><path d="M238.177 93.772a121.117 121.117 0 0 1 3.448 28.772c0 66.782-54.219 121-121 121-9.391 0-18.534-1.072-27.313-3.101" class="stroke-shape" style="opacity:1;fill:none;stroke-width:24;stroke:#010101;stroke-opacity:1;stroke-linecap:round"/></g><circle cx="119.812" cy="121.272" r="54.5" class="fills" style="opacity:1"/><g class="strokes"><circle cx="119.812" cy="121.272" r="54.5" class="stroke-shape" style="opacity:1;fill:none;stroke-width:24;stroke:#010101;stroke-opacity:1"/></g><circle cx="206.312" cy="35.772" r="24" class="fills" style="fill:#010101;fill-opacity:1"/><circle cx="39.312" cy="202.772" r="24" class="fills" style="fill:#010101;fill-opacity:1"/></svg>