<svg xmlns="http://www.w3.org/2000/svg" width="618.956" height="618.956" viewBox="-10 -5 800 800"><path d="M132-5Q78 4 38.5 44T-10 138v515q9 53 48 92t91 49l4 1h515l3-1q53-10 91.5-49.5T790 652V137q-9-53-49-93T647-5Zm560 99v76q-106 1-284 0l1-75zm-321 1q1 25 1 75H90V95Zm179 112h142v76H408v-76zm-178 0v76l-282-1v-74zm72 112q55 0 165 1h82v76l-283 1v-78zm-72 0v78H90v-77h282zm36 115h283q1 18 0 55v20H409Zm-207 35q25 0 48.5 10.5T289 509q22 25 25 59.5t-12 66Q287 666 257 681q-28 16-62.5 13.5t-62-22.5Q105 652 96 620q-12-29-5-61t29-55.5q22-23.5 53-30.5 14-4 28-4z" style="fill:#ff8c00;fill-opacity:1"/></svg>