<svg xmlns="http://www.w3.org/2000/svg" xml:space="preserve" width="99.018" height="91.703" version="1.0"><path d="M0 0v-180l32 15.061V15.633Z" style="fill:#f8931e;fill-opacity:1;fill-rule:nonzero;stroke:none" transform="matrix(.469 0 0 -.469 45 7.328)"/><path d="m0 0 4.417-45.864L-57.466-32.4" style="fill:#b3b3b3;fill-opacity:1;fill-rule:nonzero;stroke:none" transform="matrix(.469 0 0 -.469 96.948 32.078)"/><path d="M0 0c0 22.674 24.707 41.769 58.383 47.598v20.325C6.873 61.697-32 33.656-32 0c0-34.869 41.725-63.709 96-68.508v20.061C27.484-43.869 0-23.919 0 0m101.617 67.915V47.598c13.399-2.319 25.385-6.727 34.951-12.64l22.627 13.984c-15.42 9.531-35.322 16.283-57.578 18.973" style="fill:#b3b3b3;fill-opacity:1;fill-rule:nonzero;stroke:none" transform="matrix(.469 0 0 -.469 15 59.59)"/></svg>