<svg xmlns="http://www.w3.org/2000/svg" width="512" height="512"><g fill="none" fill-rule="evenodd"><path d="M0 0h512v512H0z"/><path fill="#688EFA" fill-rule="nonzero" d="M420.921.45c27.49 0 49.776 22.285 49.776 49.775v329.996c0 27.49-22.285 49.776-49.776 49.776H157.022L74.83 506.972c-8.175 7.655-21.008 7.235-28.664-.94a20.28 20.28 0 0 1-5.477-13.862V263.663c0-1.434.148-2.849.44-4.228l.021-.191V50.225C41.15 22.735 63.435.45 90.925.45ZM357 283c-19.882 0-36 16.118-36 36s16.118 36 36 36 36-16.118 36-36-16.118-36-36-36ZM250.53 85H133v2.76c15.364 2.76 23.045 10.732 23.045 23.918V328.78c0 14.106-7.067 22.078-21.201 23.918V355H245.46v-2.3c-17.207-4.294-25.81-12.267-25.81-23.919 0-3.522-.139-7.618-.147-15.706v-1.64c.005-4.152.044-9.282.146-15.771.062-3.885.094-9.301.097-16.248v-3.132c-.005-7.138-.037-15.704-.097-25.697 12.977.307 23.27.46 30.88.46 57.614 0 106.47-34.3 106.47-79.574C357 91.9 277.263 85 250.53 85ZM221 92.136c46.96-1.843 72.293 15.052 76 50.684v48.841c-3.707 38.09-29.04 54.985-76 50.685Z"/></g></svg>